<svg xmlns="http://www.w3.org/2000/svg" width="180" height="48" viewBox="0 0 180 48" role="img" aria-label="ЮТОРС">
  <defs>
    <linearGradient id="g" x1="0%" y1="0%" x2="100%" y2="100%">
      <stop offset="0%" stop-color="#e6a34a"/>
      <stop offset="100%" stop-color="#c97c1a"/>
    </linearGradient>
  </defs>
  <!-- Логомарк: минималистичный вездеход/грузовик -->
  <g transform="translate(8,10)">
    <rect x="0" y="8" rx="6" ry="6" width="58" height="20" fill="url(#g)"/>
    <rect x="38" y="0" rx="4" ry="4" width="20" height="16" fill="url(#g)"/>
    <circle cx="16" cy="32" r="6" fill="#ffffff"/>
    <circle cx="44" cy="32" r="6" fill="#ffffff"/>
    <circle cx="16" cy="32" r="3" fill="#0a0a0a"/>
    <circle cx="44" cy="32" r="3" fill="#0a0a0a"/>
  </g>
  <!-- Словесный знак -->
  <g fill="url(#g)" transform="translate(76,34)">
    <path d="M0 -18 h6 c5 0 8 3 8 9 v6 c0 6 -3 9 -8 9 H0 z m6 6 c-1 0 -2 0 -2 3 v6 c0 3 1 3 2 3 h2 c1 0 2 0 2 -3 v-6 c0 -3 -1 -3 -2 -3z"/>
    <path d="M22 -18 h6 v24 h-6 z"/>
    <path d="M34 0 v-18 h6 l5 9 5 -9 h6 V0 h-6 v-9 l-5 9 h-1 l-5 -9 V0z"/>
    <path d="M66 -18 h10 c7 0 12 5 12 12 S83 6 76 6 H66 z m10 18 c3 0 6 -3 6 -6 s-3 -6 -6 -6 h-4 v12z"/>
    <path d="M92 -18 h18 v6 h-12 v3 h10 v6 h-10 v3 h12 V0 H92z"/>
  </g>
</svg>

